:SAMPLES-PER-SECOND 30
:FULLY-SPECIFIED
:DEGREES
1522
root  -37.735 34.0771 0.676796 35.7101 85.6375 38.6183
RightUpLeg  -35.3578 -2.6276 -5.73339
RightLeg  62.8864 0.296552 0.0498598
RightFoot  -21.1783 -0.186434 -0.499138
RightToes  7.56698e-010 0 -3.6325e-017
Spine  54.5431 1.13629 -26.9131
Spine1  -21.8933 -12.4165 36.375
HEad  -46.9123 35.5417 -33.1639
LeftShoulder1  -0.167836 4.85355 -4.47143
LeftArm  -29.1677 -61.1391 -40.2416
LeftForeArm  -6.83561 -65.6729 -27.1941
LeftHand  -0.438976 8.55639 -13.4904
RightShoulder  -16.535 -50.0714 26.6629
RightArm  40.2681 56.1017 106.185
RightForeArm  1.04675 76.4762 65.8236
RightHand  -1.19669 14.8557 -7.26415
LeftUpLeg  -26.4166 11.1185 11.6763
LeftLeg  82.5698 -0.356944 -0.867944
LeftFoot  -6.03545 0.384362 -7.49882
LeftToes  -2.88401e-009 5.30678e-011 -1.08654e-010
1523
root  -36.9364 34.6534 0.754068 37.8345 86.0076 40.53
RightUpLeg  -32.4202 -2.77726 -5.60253
RightLeg  60.1864 0.180224 -0.178674
RightFoot  -21.5355 -0.179061 -0.37425
RightToes  7.56698e-010 0 -3.6325e-017
Spine  55.0082 1.16585 -26.716
Spine1  -23.765 -11.8562 36.8374
HEad  -45.861 35.2653 -32.9301
LeftShoulder1  -0.178006 4.95817 -4.23907
LeftArm  -28.6528 -61.095 -40.3703
LeftForeArm  -7.68878 -65.3026 -26.747
LeftHand  -0.451433 8.52373 -14.067
RightShoulder  -16.3587 -49.9506 26.3982
RightArm  39.5563 56.3753 104.804
RightForeArm  1.25017 76.5653 66.8586
RightHand  -1.50063 16.009 -8.57197
LeftUpLeg  -29.2244 12.5033 10.7614
LeftLeg  78.4394 -0.567426 -1.75939
LeftFoot  -7.02814 0.352762 -8.25042
LeftToes  -2.88401e-009 5.30678e-011 -1.08654e-010
1524
root  -36.1438 35.2043 0.829469 43.2494 86.1772 45.4823
RightUpLeg  -29.8365 -3.00229 -5.7405
RightLeg  57.4466 0.0931225 -0.310732
RightFoot  -21.8559 -0.156037 -0.0869091
RightToes  7.56698e-010 0 -3.6325e-017
Spine  54.4413 1.2932 -27.2069
Spine1  -24.2968 -11.6946 36.75
HEad  -45.183 34.9732 -32.45
LeftShoulder1  -0.155875 4.87729 -3.25146
LeftArm  -28.8537 -61.2213 -40.3001
LeftForeArm  -8.06712 -65.0096 -26.3762
LeftHand  -0.430558 8.37341 -14.0098
RightShoulder  -16.3743 -50.7812 25.7451
RightArm  39.0284 55.7115 105.108
RightForeArm  3.32235 76.6738 67.7894
RightHand  -1.36485 14.4927 -8.34942
LeftUpLeg  -31.845 13.7808 9.67071
LeftLeg  72.6375 -0.858153 -2.13125
LeftFoot  -7.6235 0.339237 -9.00322
LeftToes  -2.88401e-009 5.30678e-011 -1.08654e-010
1525
root  -35.3645 35.6564 0.845711 50.1806 86.3117 51.8281
RightUpLeg  -27.6525 -3.49364 -6.03337
RightLeg  55.07 0.10064 -0.275638
RightFoot  -22.1817 -0.142099 0.0836987
RightToes  7.56698e-010 0 -3.6325e-017
Spine  53.6864 1.50192 -27.7432
Spine1  -24.4564 -11.5292 37.1149
HEad  -44.9919 35.1325 -32.5462
LeftShoulder1  -0.181562 5.09205 -3.3658
LeftArm  -29.2527 -62.1479 -39.5533
LeftForeArm  -8.76217 -64.5808 -25.8622
LeftHand  -0.49571 8.7842 -14.4059
RightShoulder  -16.5186 -50.7661 26.0604
RightArm  38.394 56.1948 104.581
RightForeArm  5.55973 76.7091 67.7246
RightHand  -0.865928 14.8548 -5.38904
LeftUpLeg  -34.0817 14.6473 8.60312
LeftLeg  65.5046 -1.12729 -2.01648
LeftFoot  -8.13665 0.292382 -8.73878
LeftToes  -2.88401e-009 5.30678e-011 -1.08654e-010
1526
root  -34.6058 36.0038 0.829957 56.7002 86.2966 57.8718
RightUpLeg  -25.6977 -3.91073 -6.4536
RightLeg  53.1879 0.162221 -0.168028
RightFoot  -22.6119 -0.108622 0.45195
RightToes  7.56698e-010 0 -3.6325e-017
Spine  53.1008 1.84678 -28.4959
Spine1  -24.5337 -11.377 37.2669
HEad  -44.7066 34.2553 -32.7473
LeftShoulder1  -0.19472 5.34817 -2.3516
LeftArm  -29.6339 -62.5539 -40.0944
LeftForeArm  -9.01288 -64.2466 -25.4508
LeftHand  -0.528341 9.10147 -14.1074
RightShoulder  -16.5775 -49.6254 27.1261
RightArm  37.1976 57.4098 102.605
RightForeArm  5.77811 76.7526 68.2672
RightHand  -1.16443 15.2835 -6.96347
LeftUpLeg  -35.5015 15.2691 7.76273
LeftLeg  57.2191 -1.36329 -1.76399
LeftFoot  -8.61502 0.282197 -9.66056
LeftToes  -2.88401e-009 5.30678e-011 -1.08654e-010
1527
root  -33.8757 36.2528 0.777024 62.8019 86.0711 63.6641
RightUpLeg  -23.9382 -4.33849 -7.09382
RightLeg  51.8434 0.202086 -0.108397
RightFoot  -23.0948 -0.0899114 0.646745
RightToes  7.56698e-010 0 -3.6325e-017
Spine  52.7629 2.10892 -29.1715
Spine1  -24.5429 -11.3294 36.5923
HEad  -45.3156 34.7598 -33.037
LeftShoulder1  -0.227021 5.80589 -1.54569
LeftArm  -29.8544 -63.4231 -40.0382
LeftForeArm  -9.84916 -63.7316 -24.8779
LeftHand  -0.498984 8.89602 -14.0225
RightShoulder  -16.5955 -49.6065 27.1854
RightArm  36.0189 57.4432 102.129
RightForeArm  7.28941 76.8244 68.8901
RightHand  -1.02484 15.6594 -6.078
LeftUpLeg  -36.1408 16.1376 6.86165
LeftLeg  48.0629 -1.38623 -1.22414
LeftFoot  -8.43733 0.287198 -9.32878
LeftToes  -2.88401e-009 5.30678e-011 -1.08654e-010
1528
root  -33.1831 36.356 0.655386 66.9335 85.8515 67.4183
RightUpLeg  -22.7591 -4.77194 -7.79478
RightLeg  51.2693 0.38146 0.137564
RightFoot  -23.8688 -0.0508334 1.00845
RightToes  7.56698e-010 0 -3.6325e-017
Spine  52.4776 2.27824 -29.8487
Spine1  -24.3482 -11.4021 36.1235
HEad  -45.4522 34.7046 -33.8491
LeftShoulder1  -0.320329 6.84325 -1.23478
LeftArm  -30.1938 -64.3865 -39.9017
LeftForeArm  -10.6441 -63.4817 -24.6474
LeftHand  -0.546183 9.13803 -14.481
RightShoulder  -16.6963 -49.0816 27.8506
RightArm  35.8588 58.1212 101.97
RightForeArm  7.4553 76.8623 69.418
RightHand  -1.09942 15.2992 -6.59177
LeftUpLeg  -36.5903 16.7926 5.95719
LeftLeg  38.8314 -1.17746 -0.648987
LeftFoot  -8.20958 0.303121 -9.27014
LeftToes  -2.88401e-009 5.30678e-011 -1.08654e-010
1529
root  -32.5177 36.2905 0.45822 68.4883 85.8043 68.7045
RightUpLeg  -21.9801 -4.78314 -8.34408
RightLeg  51.6598 0.309468 0.0443988
RightFoot  -24.9834 0.035394 1.70965
RightToes  7.56698e-010 0 -3.6325e-017
Spine  52.5019 2.48117 -30.2145
Spine1  -24.6357 -11.1528 35.5004
HEad  -45.5012 35.2078 -34.3712
LeftShoulder1  -0.264483 6.60467 -0.0578062
LeftArm  -30.8494 -64.2574 -40.5191
LeftForeArm  -10.3836 -63.1915 -24.2778
LeftHand  -0.489455 8.79487 -14.1325
RightShoulder  -16.6634 -49.9898 26.9973
RightArm  36.3324 57.3936 103.624
RightForeArm  7.89029 76.8836 69.6215
RightHand  -1.04126 14.3654 -6.53503
LeftUpLeg  -36.837 16.7808 5.51471
LeftLeg  30.48 -0.983136 -0.256583
LeftFoot  -7.84568 0.351888 -9.97696
LeftToes  -2.88401e-009 5.30678e-011 -1.08654e-010
1530
root  -31.8263 36.0272 0.182167 66.8217 85.8406 67.0101
RightUpLeg  -21.3893 -4.51875 -8.91959
RightLeg  53.0904 0.268533 -0.00528298
RightFoot  -26.6429 0.146058 2.43457
RightToes  7.56698e-010 0 -3.6325e-017
Spine  52.2016 2.84234 -30.619
Spine1  -23.8377 -11.0973 35.3368
HEad  -46.2817 35.8003 -35.3946
LeftShoulder1  -0.293844 6.8648 -0.309894
LeftArm  -32.1894 -65.4072 -39.3844
LeftForeArm  -10.6422 -62.6901 -23.7182
LeftHand  -0.557052 9.16093 -14.7059
RightShoulder  -16.777 -49.7153 27.4723
RightArm  37.0513 57.8272 104.552
RightForeArm  6.09033 76.7842 68.6357
RightHand  -1.08167 14.6513 -6.68468
LeftUpLeg  -37.0989 16.861 5.3769
LeftLeg  24.458 -1.39793 -0.363967
LeftFoot  -7.05621 0.429284 -10.3152
LeftToes  -2.88401e-009 5.30678e-011 -1.08654e-010
1531
root  -31.1084 35.6077 -0.193937 56.389 85.6471 56.6534
RightUpLeg  -21.1487 -3.64809 -9.52711
RightLeg  55.2837 0.267239 -0.00721562
RightFoot  -28.679 0.30476 3.2697
RightToes  7.56698e-010 0 -3.6325e-017
Spine  51.9581 3.22769 -30.8308
Spine1  -23.1101 -10.966 34.7769
HEad  -45.4336 35.4265 -35.9663
LeftShoulder1  -0.330112 7.58844 0.46734
LeftArm  -33.2467 -66.0479 -39.4004
LeftForeArm  -10.5553 -62.5678 -23.573
LeftHand  -0.494637 8.86054 -14.0498
RightShoulder  -16.8331 -49.0499 28.1654
RightArm  37.5644 57.9825 105.052
RightForeArm  4.94912 76.7565 68.5413
RightHand  -1.16736 14.3706 -7.26108
LeftUpLeg  -37.6395 17.0571 5.42724
LeftLeg  22.2514 -1.19505 -0.201514
LeftFoot  -5.97977 0.5261 -10.4097
LeftToes  -2.88401e-009 5.30678e-011 -1.08654e-010
1532
root  -30.3328 35.1053 -0.683555 45.4512 85.3022 45.9766
RightUpLeg  -20.6023 -2.43193 -10.3155
RightLeg  57.5173 0.242205 -0.0371853
RightFoot  -31.1057 0.560957 4.4371
RightToes  7.56698e-010 0 -3.6325e-017
Spine  52.1237 3.44676 -30.7272
Spine1  -22.9875 -10.8029 33.8807
HEad  -44.6222 35.445 -36.5979
LeftShoulder1  -0.302779 7.67673 1.40859
LeftArm  -34.036 -65.6504 -39.6947
LeftForeArm  -10.2989 -62.5976 -23.5842
LeftHand  -0.531638 9.12793 -14.11
RightShoulder  -16.9044 -49.3858 28.0237
RightArm  38.6684 56.6562 106.906
RightForeArm  4.18202 76.7816 69.1013
RightHand  -1.4285 14.7512 -8.6375
LeftUpLeg  -38.4938 16.9974 5.4816
LeftLeg  24.3723 -0.926314 -0.122165
LeftFoot  -4.77446 0.551528 -9.3091
LeftToes  -2.88401e-009 5.30678e-011 -1.08654e-010
1533
root  -29.5286 34.5279 -1.23511 38.4099 84.7475 39.1708
RightUpLeg  -19.9703 -1.38952 -11.5576
RightLeg  59.7717 0.49588 0.427159
RightFoot  -33.8914 0.871256 5.5224
RightToes  7.56698e-010 0 -3.6325e-017
Spine  52.0233 3.83208 -31.032
Spine1  -22.5668 -10.6222 33.6222
HEad  -43.657 35.7168 -37.3801
LeftShoulder1  -0.351115 8.01005 0.785856
LeftArm  -33.9702 -65.4414 -39.4694
LeftForeArm  -9.867 -63.0846 -24.1021
LeftHand  -0.520183 9.16692 -13.6434
RightShoulder  -16.8781 -48.5339 28.7202
RightArm  39.5223 56.5219 107.385
RightForeArm  1.57149 76.5923 67.124
RightHand  -1.40486 14.9095 -8.4402
LeftUpLeg  -40.347 16.573 5.34788
LeftLeg  29.85 -0.833242 -0.160999
LeftFoot  -0.57393 0.717837 -7.47951
LeftToes  -2.88401e-009 5.30678e-011 -1.08654e-010
1534
root  -28.6149 33.8188 -1.9083 29.4522 84.255 30.3206
RightUpLeg  -19.5585 0.201676 -12.696
RightLeg  62.5735 0.629525 0.772743
RightFoot  -36.5899 1.34712 7.12348
RightToes  7.56698e-010 0 -3.6325e-017
Spine  52.1853 4.0249 -30.3743
Spine1  -22.8023 -10.245 33.3337
HEad  -42.6615 36.3744 -37.5811
LeftShoulder1  -0.348253 8.09804 1.0307
LeftArm  -32.8256 -64.9756 -40.8062
LeftForeArm  -8.80948 -63.5728 -24.584
LeftHand  -0.552656 9.27515 -14.0986
RightShoulder  -16.7972 -48.1976 28.8519
RightArm  39.2371 55.8596 107.093
RightForeArm  -0.614541 76.4632 65.9936
RightHand  -1.38635 14.2375 -8.6002
LeftUpLeg  -43.1756 16.3526 5.69393
LeftLeg  37.1807 -0.503437 -0.0314553
LeftFoot  1.95641 0.961813 -8.36542
LeftToes  -2.88401e-009 5.30678e-011 -1.08654e-010
